<svg id="Warstwa_1" data-name="Warstwa 1" xmlns="http://www.w3.org/2000/svg" width="897.43" height="252.38" viewBox="0 0 897.43 252.38"><defs><style>.cls-1{fill:#434344;}.cls-2{fill:#2db674;}</style></defs><title>logo-horizontal</title><path class="cls-1" d="M519.55,337,579,448.72a20.24,20.24,0,0,1-17.87,29.74h-7.76l-12.11-23.38a6.38,6.38,0,0,0-5.67-3.45H461.67a6.37,6.37,0,0,0-5.71,3.53l-11.66,23.3h-6.76A21,21,0,0,1,419,447.63L477.83,337A23.63,23.63,0,0,1,519.55,337Zm1.66,82.24L505.81,388a7.89,7.89,0,0,0-14.17,0l-15.23,31.27Z" transform="translate(-110.96 -269.37)"/><path class="cls-1" d="M831.64,372V517.42h0A35.46,35.46,0,0,1,796.18,482V461.35c-6.71,8.87-20.85,16.53-40,16.53-41.69,0-66.12-30.9-66.12-68.76s24.43-68.76,66.12-68.76c18.69,0,34.5,8.62,40,16.05V343.23h6.68A28.78,28.78,0,0,1,831.64,372Zm-70.21,0c-22,0-36.17,16.29-36.17,37.14,0,21.56,13.41,37.37,36.17,37.37,22.29,0,36.18-15.57,36.18-37.37C797.61,386.12,783.72,372,761.43,372Z" transform="translate(-110.96 -269.37)"/><path class="cls-1" d="M972.93,461.72c-5.52,7.43-21.33,16.06-40,16.06-41.69,0-66.12-30.91-66.12-68.77s24.43-68.76,66.12-68.76c19.17,0,33.31,7.67,40,16.53V343.13h7.88a27.57,27.57,0,0,1,27.58,27.57V474.9H986.1a13.18,13.18,0,0,1-13.17-13.18Zm-34.75-90.08C915.42,371.64,902,387.45,902,409c0,20.85,14.13,37.14,36.17,37.14,22.29,0,36.18-14.14,36.18-37.14C974.36,387.21,960.47,371.64,938.18,371.64Z" transform="translate(-110.96 -269.37)"/><path class="cls-2" d="M638.3,294.22c-11,0-20.12,8.62-20.12,19.16,0,11.26,9.91,20.16,21.58,19.36a19.68,19.68,0,0,0,18-16.35C659.59,304.53,650.09,294.22,638.3,294.22Z" transform="translate(-110.96 -269.37)"/><path class="cls-1" d="M509.38,90.37h0a35.94,35.94,0,0,1,35.94,35.94v82.78a0,0,0,0,1,0,0h0a35.94,35.94,0,0,1-35.94-35.94V90.37a0,0,0,0,1,0,0Z"/><path class="cls-1" d="M361.81,386.85,247.94,273a12.31,12.31,0,0,0-17.41,0l-31.94,31.93,82,81.94a12.34,12.34,0,0,1,0,17.42l-82,81.94,31.94,31.93a12.31,12.31,0,0,0,17.41,0L361.81,404.27A12.32,12.32,0,0,0,361.81,386.85Z" transform="translate(-110.96 -269.37)"/><path class="cls-2" d="M247.87,388l-68.05-68.05-64.26,64.7a15.7,15.7,0,0,0,0,22.22l63.81,64.34,68.5-68.5A10.41,10.41,0,0,0,247.87,388Z" transform="translate(-110.96 -269.37)"/></svg>